<svg width="86" height="100" viewBox="0 0 86 100" fill="none" xmlns="http://www.w3.org/2000/svg">
<path fill-rule="evenodd" clip-rule="evenodd" d="M17.4843 76.053C37.3223 76.053 53.4042 59.9711 53.4042 40.133C53.4042 35.9448 52.6874 31.9239 51.3698 28.1865C70.5652 28.9151 85.9031 44.7065 85.9031 64.0802C85.9031 83.9183 69.8212 100 49.9832 100C34.3334 100 21.0211 89.9919 16.0977 76.0267C16.5577 76.0442 17.0199 76.053 17.4843 76.053Z" fill="#BAB4FA"/>
<path d="M58.6895 58.7451C60.9531 61.0512 67.1781 64.2796 73.969 58.7451" stroke="#36278F" stroke-width="3" stroke-linecap="round"/>
<path d="M26.808 52.52H36.472V57H20.6V52.84L30.2 39.016H20.6V34.536H36.472V38.696L26.808 52.52Z" fill="#BAB4FA"/>
<path d="M5.368 33.92H12.012V37H1.1V34.14L7.7 24.636H1.1V21.556H12.012V24.416L5.368 33.92Z" fill="#BAB4FA"/>
<path d="M22.928 20.32H26.552V22H20.6V20.44L24.2 15.256H20.6V13.576H26.552V15.136L22.928 20.32Z" fill="#BAB4FA"/>
</svg>
