<svg width="30" height="30" viewBox="0 0 30 30" fill="none" xmlns="http://www.w3.org/2000/svg">
<g clip-path="url(#clip0_402_46)">
<path d="M19.36 5C18.67 5 18.11 5.56 18.11 6.25C18.11 6.94 18.67 7.5 19.36 7.5C23.68 7.5 27.2 11.02 27.2 15.34C27.2 19.66 23.68 23.18 19.36 23.18C15.04 23.18 11.52 19.66 11.52 15.34C11.52 13.84 11.95 12.37 12.76 11.11C13.13 10.53 12.96 9.76 12.38 9.38C11.8 9.01 11.03 9.18 10.65 9.76C9.58002 11.42 9.02002 13.35 9.02002 15.34C9.02002 21.04 13.66 25.68 19.36 25.68C25.06 25.68 29.7 21.04 29.7 15.34C29.7 9.64 25.06 5 19.36 5Z" fill="#FFFBF3"/>
<path d="M10.34 23.18C6.02 23.18 2.5 19.66 2.5 15.34C2.5 11.02 6.02 7.5 10.34 7.5C14.66 7.5 18.18 11.02 18.18 15.34C18.18 16.87 17.74 18.35 16.91 19.62C16.53 20.2 16.7 20.97 17.27 21.35C17.85 21.73 18.62 21.57 19 20.99C20.1 19.31 20.68 17.36 20.68 15.34C20.67 9.64 16.04 5 10.34 5C4.64 5 0 9.64 0 15.34C0 21.04 4.64 25.68 10.34 25.68C11.03 25.68 11.59 25.12 11.59 24.43C11.59 23.74 11.03 23.18 10.34 23.18Z" fill="#FFFBF3"/>
</g>
<defs>
<clipPath id="clip0_402_46">
<rect width="29.7" height="20.68" fill="white" transform="translate(0 5)"/>
</clipPath>
</defs>
</svg>
