<svg width="30" height="30" viewBox="0 0 30 30" fill="none" xmlns="http://www.w3.org/2000/svg">
<g clip-path="url(#clip0_402_30)">
<g clip-path="url(#clip1_402_30)">
<path d="M24.23 13.83C23.54 13.83 22.98 14.39 22.98 15.08V25.99C22.98 26.71 22.39 27.3 21.67 27.3H8.21002C7.49002 27.3 6.90002 26.71 6.90002 25.99V15.08C6.90002 14.39 6.34002 13.83 5.65002 13.83C4.96002 13.83 4.40002 14.39 4.40002 15.08V25.99C4.40002 28.09 6.11002 29.8 8.21002 29.8H21.67C23.77 29.8 25.48 28.09 25.48 25.99V15.08C25.48 14.39 24.92 13.83 24.23 13.83Z" fill="#FFE177"/>
<path d="M29.41 13.14L17.2 0.93C15.97 -0.31 13.95 -0.31 12.72 0.93L0.370002 13.27C-0.119998 13.76 -0.119998 14.55 0.370002 15.04C0.610002 15.28 0.930002 15.41 1.25 15.41C1.57 15.41 1.89 15.29 2.13 15.04L14.48 2.69C14.74 2.43 15.17 2.43 15.43 2.69L27.64 14.9C28.13 15.39 28.92 15.39 29.41 14.9C29.9 14.41 29.9 13.63 29.41 13.14Z" fill="#FFE177"/>
</g>
</g>
<defs>
<clipPath id="clip0_402_30">
<rect width="30" height="30" fill="white"/>
</clipPath>
<clipPath id="clip1_402_30">
<rect width="29.77" height="29.79" fill="white"/>
</clipPath>
</defs>
</svg>
