<svg width="30" height="30" viewBox="0 0 30 30" fill="none" xmlns="http://www.w3.org/2000/svg">
<g clip-path="url(#clip0_402_40)">
<path d="M26.86 27.32H6.09C5.21 27.32 4.5 26.61 4.5 25.73C4.5 24.85 5.21 24.14 6.09 24.14H22.65C23.79 24.14 24.85 23.7 25.66 22.89C26.47 22.08 26.9 21.02 26.9 19.88L26.88 4.25C26.88 1.9 24.97 0 22.63 0H6.25C3.91 0 2 1.91 2 4.25V18.96C2 19.65 2.56 20.21 3.25 20.21C3.94 20.21 4.5 19.65 4.5 18.96V4.25C4.5 3.29 5.29 2.5 6.25 2.5H22.63C23.59 2.5 24.38 3.28 24.38 4.25L24.4 19.89C24.4 20.36 24.22 20.8 23.89 21.13C23.56 21.46 23.12 21.64 22.65 21.64H6.09C3.83 21.64 2 23.48 2 25.73C2 27.98 3.83 29.82 6.09 29.82H26.86C27.55 29.82 28.11 29.26 28.11 28.57C28.11 27.88 27.55 27.32 26.86 27.32Z" fill="#FFFBF3"/>
</g>
<defs>
<clipPath id="clip0_402_40">
<rect width="26.11" height="29.82" fill="white" transform="translate(2)"/>
</clipPath>
</defs>
</svg>
