<svg width="30" height="30" viewBox="0 0 30 30" fill="none" xmlns="http://www.w3.org/2000/svg">
<g clip-path="url(#clip0_402_43)">
<path d="M19.37 1.09001C18.67 0.880007 17.92 1.04001 17.35 1.50001C16.77 1.97001 16.46 2.69001 16.51 3.44001C16.64 5.25001 16.36 7.04001 15.66 8.77001C14.4 11.89 11.89 14.41 8.76997 15.66C7.03997 16.35 5.23997 16.64 3.43997 16.51C2.69997 16.46 1.96997 16.77 1.49997 17.35C1.03997 17.92 0.889967 18.67 1.08997 19.37C2.92997 25.68 8.76997 29.97 15.27 29.97C15.69 29.97 16.12 29.95 16.55 29.91C23.56 29.3 29.3 23.56 29.91 16.55C30.52 9.55001 26.08 3.05001 19.37 1.09001ZM27.42 16.33C26.91 22.14 22.15 26.91 16.33 27.42C10.65 27.91 5.34997 24.4 3.59997 19.02C5.66997 19.12 7.71997 18.77 9.69997 17.98C13.45 16.47 16.47 13.45 17.98 9.70001C18.77 7.73001 19.12 5.68001 19.02 3.60001C24.4 5.35001 27.92 10.64 27.42 16.33Z" fill="#FFFBF3"/>
</g>
<defs>
<clipPath id="clip0_402_43">
<rect width="28.97" height="28.97" fill="white" transform="translate(1 1)"/>
</clipPath>
</defs>
</svg>
