<svg width="30" height="30" viewBox="0 0 30 30" fill="none" xmlns="http://www.w3.org/2000/svg">
<g clip-path="url(#clip0_402_35)">
<path d="M6.84001 18.29C7.52001 18.44 8.18001 18.02 8.34001 17.35C9.08001 14.13 11.91 11.89 15.22 11.89C18.51 11.89 21.41 14.22 22.11 17.43C22.24 18.01 22.75 18.41 23.33 18.41C23.42 18.41 23.51 18.4 23.6 18.38C24.27 18.23 24.7 17.57 24.55 16.89C23.88 13.83 21.73 11.36 18.97 10.17C19.94 9.2 20.54 7.86 20.54 6.38C20.54 3.41 18.13 1 15.16 1C12.19 1 9.78001 3.41 9.78001 6.38C9.78001 7.87 10.39 9.21 11.36 10.19C8.66001 11.37 6.60001 13.76 5.90001 16.79C5.75001 17.46 6.17001 18.13 6.84001 18.29ZM15.16 3.5C16.75 3.5 18.04 4.79 18.04 6.38C18.04 7.97 16.75 9.26 15.16 9.26C13.57 9.26 12.28 7.97 12.28 6.38C12.28 4.79 13.57 3.5 15.16 3.5Z" fill="#FFFBF3"/>
<path d="M26.32 19.78C23.87 18.82 19.82 19.59 16.73 23.54C16.3 24.08 16.4 24.87 16.94 25.29C17.48 25.72 18.27 25.62 18.69 25.08C21.15 21.94 24.05 21.58 25.4 22.11C26.11 22.39 26.44 22.87 26.38 23.56C26.19 25.82 20.31 26.81 16.09 26.81C13.49 21.01 8.76997 18.75 5.28997 19.56C3.12997 20.06 1.82997 21.71 1.99997 23.76C2.42997 28.98 12.38 29.31 14.86 29.31C15.05 29.31 15.2 29.31 15.29 29.31L15.55 29.3C15.56 29.3 15.56 29.3 15.57 29.31C15.66 29.31 15.81 29.31 16 29.31C18.48 29.31 28.43 28.98 28.86 23.76C29.03 21.98 28.05 20.46 26.32 19.78ZM4.50997 23.56C4.41997 22.5 5.31997 22.12 5.86997 22C6.10997 21.94 6.37997 21.91 6.66997 21.91C8.54997 21.91 11.34 23.16 13.31 26.77C9.31997 26.57 4.66997 25.56 4.50997 23.56Z" fill="#FFFBF3"/>
</g>
<defs>
<clipPath id="clip0_402_35">
<rect width="26.9" height="28.31" fill="white" transform="translate(2 1)"/>
</clipPath>
</defs>
</svg>
